<svg id="Layer_1" xmlns="http://www.w3.org/2000/svg" version="1.1" viewBox="0 0 459.86 273.57">
  <!-- Generator: Adobe Illustrator 29.7.1, SVG Export Plug-In . SVG Version: 2.1.1 Build 8)  -->
  <path d="M318.21,116.97c-.33-.37-2.2-1.44-2.7-1.55-11.85-2.62-23.13,13.13-24.11,23.65l-14.03,8.2,1.5-23.21,1.01-2.98,50.49-29.57-.26-16.13-19.68-13.04.43-1.68c6.94-2.83,14.07-9.09,21.01-11.47,5.62-1.93,9.33-.27,14.33,2.15,2.55,1.23,25.17,15.17,26.16,14.07l-.5-2.74-18.99-11.49c0-.91,15.43-5.57,17.24-5.74,4.73-.43,9.99,1.41,14.38,3.11,3.64,1.41,11.37,4.31,11.88,8.61.3,2.54.36,16.37-.23,18.26-.42,1.33-2.23,2.49-3.51,2.97-.88-.17-.42-5.51-5.13-6.37-9.09-1.66-18.5,8.52-21.38,16.36-.9,2.46-.97,6.46-2.58,7.91l-42.66,24.82c-1.98.57-1.48-2.79-2.68-4.13ZM337.86,86.86l29.5-16.73c.17-.69-.41-.85-.83-1.16-1.82-1.35-9.48-5.65-11.4-5.6-4.1.11-13.59,6.83-17.27,9.26v14.23Z" fill="currentColor"/>
  <path d="M201.36,0l-88.46,55.2c-29.11,18.93-53.55,52.01-37.47,87.75,15.43,34.31,59.63,45.38,94.17,42.25,39.14-3.54,69.07-24.52,102.02-43.41.99-.15.65.03.74.73.12.92-.63,7.79-.98,8.39-30.01,17.73-58.96,36.67-94.36,41.7-36.08,5.12-81.14-3.01-103.57-34.21-32.14-44.69,4.81-93.52,46.07-114.07L201.36,0Z" fill="currentColor"/>
  <path d="M324.86,82.37c-.31,2.04.76,6.08-.72,7.51l-112.94,64.96c-33.35,17.94-96.92,16.42-113.43-23.71-14.97-36.41,20.61-60.69,47.25-75.81,30.03-17.03,61.1-32.24,91.09-49.34l-.59,1.41c-6.57,3.74-13.15,7.47-19.63,11.36-27.16,16.3-56.21,33.01-82.5,50.42-23.06,15.27-42.83,42.9-20.8,68.61,25.63,29.91,73.6,21.87,104.59,5.57,35.5-18.66,69.87-41.04,105.14-60.26l2.52-.73Z" fill="currentColor"/>
  <path d="M218.36,3.49l-94.76,58.39c-24.87,15.99-46.14,43.61-32.33,74.23,14.09,31.24,58.2,38.99,88.68,33.95,34.85-5.76,62.8-27.99,93.16-44.26.96.62.54.79.51,1.48-.1,2.3-.26,4.7-.51,6.99l-45.42,26.54c-39.81,27.38-126.59,28.67-146.22-23.92-19.69-52.74,43.13-84.33,80.55-103.56L218.36,3.49Z" fill="currentColor"/>
  <path d="M235.86,19.47l-90.46,55.7c-49.2,29.82-22.16,74.35,29.7,69.09,12.45-1.26,24.16-5.53,35.09-11.39l104.55-59.91c1.08-.27,4.64,1.91,5.59,2.69.53.44,1.46.94.8,1.73l-108.93,62.47c-26.47,16.22-76.45,19.75-95.54-9.12-16.8-25.4,5.37-50.26,27.37-61.94l91.84-49.33Z" fill="currentColor"/>
  <path d="M231.36,34.95l-79.26,49.4c-12.01,7.56-23.22,21.75-12.5,35.47,14.33,18.35,49.22,12.13,66.6,1.07l97.31-55.63c1.32-1.01,6.34,3.48,6.34,3.87l-.98,1.01c-34.91,18.53-68.62,41.19-103.68,59.23-9.87,5.08-21.35,9.39-32.57,9.92-48.46,2.28-63.61-40.89-19.11-63.01l77.84-41.34Z" fill="currentColor"/>
  <path d="M152.11,228.64c1.06.15,3.58,1.31,4.6,1.9,10.4,6.06,9.49,21.83-1.38,26.83l9.53,16.2h-13.25c-3.03-2.99-6.3-11.95-9.21-14.27-1.23-.97-2.95-1.21-4.04.04v14.23h-11c-1.19-10.08-.26-20.46-.19-30.62.03-3.9-.8-8.68-.34-12.59.09-.73.06-1.28.78-1.72h24.5ZM138.36,248.61c0,.56,9.76.12,10.72-.03,4.23-.64,5.03-7.44,1.48-9.41-.38-.21-3.19-1.05-3.45-1.05h-8l-.75.75v9.73Z" fill="currentColor"/>
  <path d="M407.86,273.57h-13.25l-9.46-14.52c-1.06-.77-3.42-.83-4.29.29v14.23h-11v-44.93h25.25c1.34,0,5.35,2.46,6.51,3.48,7.41,6.56,6.9,17.21-.51,23.48-.86.73-2.73.98-2.76,2.23l9.51,15.74ZM381.36,238.13c.16.49-.5,1.08-.5,1.25v8.99c0,1.38,3.06.27,3.76.25,3.28-.11,7.92.97,10.03-1.97,2.64-3.67-.52-8.52-4.53-8.52h-8.75Z" fill="currentColor"/>
  <polygon points="253.36 228.64 253.36 246.11 271.86 246.11 271.86 228.64 282.86 228.64 282.86 273.57 271.86 273.57 271.86 256.1 254.11 256.1 253.36 256.85 253.36 273.57 242.36 273.57 242.36 228.64 253.36 228.64" fill="currentColor"/>
  <path d="M184.86,261.6l11.27-3.88c2.88,4.5,7,6.32,12.36,5.26,3.32-.66,4.11-3.56,1-5.26-6.51-3.54-19.38-1.19-22.66-10.82-6.34-18.59,21.24-24.55,31.53-14.01,1.53,1.56,4.77,5.93,2.36,7.34s-6.18,1.94-8.71,3.31l-.89-.4c-.41-5.79-16.19-5.19-13.01,0,1.08,1.76,13.29,3.57,16.25,4.75,6.09,2.43,9.23,7.2,8.45,13.91-1.96,17.03-35.03,16.73-37.94-.19Z" fill="currentColor"/>
  <path d="M349.86,273.57h-12.5l-2.94-8.19-15.73-.22-4.08,8.41h-11.75l17.73-44.97,12.03.53,17.24,44.44ZM329.86,255.1c-.67-2.77-1.8-6.19-2.98-8.76-.23-.49-.33-1.17-1.02-1.22l-3.51,9.98h7.5Z" fill="currentColor"/>
  <path d="M60.36,273.57l17.23-44.45,12.04-.52,17.72,44.96h-11.75l-4.07-8.42-15.74.24-2.95,8.18h-12.5ZM87.86,255.1l-3.51-9.98c-2.34,2.54-2.83,6.87-4.49,9.98h8Z" fill="currentColor"/>
  <polygon points="459.86 228.64 459.86 238.13 439.11 238.13 438.36 238.88 438.36 246.11 455.11 246.11 455.86 246.86 455.86 255.35 455.11 256.1 438.36 256.1 438.36 263.34 439.11 264.09 459.86 264.09 459.86 273.57 427.36 273.57 427.36 228.64 459.86 228.64" fill="currentColor"/>
  <path d="M21.26,227.79c9.23-.89,17.4,3.6,22.55,11.09l-9.72,5.74-.72-.23c-7.99-11.44-25.21-2.89-21.16,10.62,2.12,7.06,10.67,10.18,17.11,6.78,1.15-.61,3.99-3.68,4.71-3.62l9.32,5.72c-9.77,15.09-33.2,13.84-40.98-2.55-7.06-14.87,2.47-31.97,18.9-33.56Z" fill="currentColor"/>
  <path d="M380.73,76.99c6.99-1.31,8.51,3.56,6.88,9.37-1.55,5.54-11.42,17.35-17.51,11.49-5.5-5.29,4.05-19.63,10.62-20.86Z" fill="currentColor"/>
  <path d="M307.73,120.42c15.39-3.21,4.69,19.89-4.22,21.74-7.17,1.48-8.22-4.57-6.66-10.14,1.04-3.73,7.07-10.8,10.89-11.59Z" fill="currentColor"/>
  <path d="M337.86,86.86v-14.23c3.68-2.44,13.17-9.16,17.27-9.26,1.92-.05,9.58,4.25,11.4,5.6.42.31.99.47.83,1.16l-29.5,16.73Z" fill="none"/>
  <path d="M138.36,248.61v-9.73l.75-.75h8c.26,0,3.07.84,3.45,1.05,3.55,1.97,2.75,8.77-1.48,9.41-.96.15-10.72.59-10.72.03Z" fill="none"/>
  <path d="M381.36,238.13h8.75c4.02,0,7.17,4.85,4.53,8.52-2.11,2.93-6.74,1.86-10.03,1.97-.7.02-3.76,1.12-3.76-.25v-8.99c0-.17.66-.76.5-1.25Z" fill="none"/>
  <path d="M329.86,255.1h-7.5l3.51-9.98c.69.05.79.73,1.02,1.22,1.18,2.57,2.31,5.99,2.98,8.76Z" fill="none"/>
  <path d="M87.86,255.1h-8c1.67-3.11,2.16-7.44,4.49-9.98l3.51,9.98Z" fill="none"/>
</svg>
