<svg xmlns="http://www.w3.org/2000/svg" viewBox="0 0 100 100">
  <rect width="100" height="100" rx="18" fill="#10b981"/>
  <!-- Logo swoosh graphic: original bounding box x:75-395, y:0-182
       Scale to fill 90px wide, centered vertically in 100x100 -->
  <g transform="translate(5,24) scale(0.281) translate(-75,0)" fill="white">
    <path d="M318.21,116.97c-.33-.37-2.2-1.44-2.7-1.55-11.85-2.62-23.13,13.13-24.11,23.65l-14.03,8.2,1.5-23.21,1.01-2.98,50.49-29.57-.26-16.13-19.68-13.04.43-1.68c6.94-2.83,14.07-9.09,21.01-11.47,5.62-1.93,9.33-.27,14.33,2.15,2.55,1.23,25.17,15.17,26.16,14.07l-.5-2.74-18.99-11.49c0-.91,15.43-5.57,17.24-5.74,4.73-.43,9.99,1.41,14.38,3.11,3.64,1.41,11.37,4.31,11.88,8.61.3,2.54.36,16.37-.23,18.26-.42,1.33-2.23,2.49-3.51,2.97-.88-.17-.42-5.51-5.13-6.37-9.09-1.66-18.5,8.52-21.38,16.36-.9,2.46-.97,6.46-2.58,7.91l-42.66,24.82c-1.98.57-1.48-2.79-2.68-4.13ZM337.86,86.86l29.5-16.73c.17-.69-.41-.85-.83-1.16-1.82-1.35-9.48-5.65-11.4-5.6-4.1.11-13.59,6.83-17.27,9.26v14.23Z"/>
    <path d="M201.36,0l-88.46,55.2c-29.11,18.93-53.55,52.01-37.47,87.75,15.43,34.31,59.63,45.38,94.17,42.25,39.14-3.54,69.07-24.52,102.02-43.41.99-.15.65.03.74.73.12.92-.63,7.79-.98,8.39-30.01,17.73-58.96,36.67-94.36,41.7-36.08,5.12-81.14-3.01-103.57-34.21-32.14-44.69,4.81-93.52,46.07-114.07L201.36,0Z"/>
    <path d="M324.86,82.37c-.31,2.04.76,6.08-.72,7.51l-112.94,64.96c-33.35,17.94-96.92,16.42-113.43-23.71-14.97-36.41,20.61-60.69,47.25-75.81,30.03-17.03,61.1-32.24,91.09-49.34l-.59,1.41c-6.57,3.74-13.15,7.47-19.63,11.36-27.16,16.3-56.21,33.01-82.5,50.42-23.06,15.27-42.83,42.9-20.8,68.61,25.63,29.91,73.6,21.87,104.59,5.57,35.5-18.66,69.87-41.04,105.14-60.26l2.52-.73Z"/>
    <path d="M218.36,3.49l-94.76,58.39c-24.87,15.99-46.14,43.61-32.33,74.23,14.09,31.24,58.2,38.99,88.68,33.95,34.85-5.76,62.8-27.99,93.16-44.26.96.62.54.79.51,1.48-.1,2.3-.26,4.7-.51,6.99l-45.42,26.54c-39.81,27.38-126.59,28.67-146.22-23.92-19.69-52.74,43.13-84.33,80.55-103.56L218.36,3.49Z"/>
    <path d="M235.86,19.47l-90.46,55.7c-49.2,29.82-22.16,74.35,29.7,69.09,12.45-1.26,24.16-5.53,35.09-11.39l104.55-59.91c1.08-.27,4.64,1.91,5.59,2.69.53.44,1.46.94.8,1.73l-108.93,62.47c-26.47,16.22-76.45,19.75-95.54-9.12-16.8-25.4,5.37-50.26,27.37-61.94l91.84-49.33Z"/>
    <path d="M231.36,34.95l-79.26,49.4c-12.01,7.56-23.22,21.75-12.5,35.47,14.33,18.35,49.22,12.13,66.6,1.07l97.31-55.63c1.32-1.01,6.34,3.48,6.34,3.87l-.98,1.01c-34.91,18.53-68.62,41.19-103.68,59.23-9.87,5.08-21.35,9.39-32.57,9.92-48.46,2.28-63.61-40.89-19.11-63.01l77.84-41.34Z"/>
    <path d="M380.73,76.99c6.99-1.31,8.51,3.56,6.88,9.37-1.55,5.54-11.42,17.35-17.51,11.49-5.5-5.29,4.05-19.63,10.62-20.86Z"/>
    <path d="M307.73,120.42c15.39-3.21,4.69,19.89-4.22,21.74-7.17,1.48-8.22-4.57-6.66-10.14,1.04-3.73,7.07-10.8,10.89-11.59Z"/>
  </g>
</svg>
